<?xml version="1.0" standalone="no"?>
<!DOCTYPE svg PUBLIC "-//W3C//DTD SVG 20010904//EN"
 "http://www.w3.org/TR/2001/REC-SVG-20010904/DTD/svg10.dtd">
<svg version="1.0" xmlns="http://www.w3.org/2000/svg"
 width="1280.000000pt" height="960.000000pt" viewBox="0 0 1280.000000 960.000000"
 preserveAspectRatio="xMidYMid meet">
<g transform="translate(0.000000,960.000000) scale(0.100000,-0.100000)"
fill="#000000" stroke="none">
<path d="M5737 9273 c-50 -222 -52 -241 -34 -261 14 -16 17 -41 17 -155 0
-160 21 -140 -170 -157 -171 -15 -419 -54 -617 -95 -91 -19 -173 -35 -184 -35
-18 0 -19 9 -19 127 0 104 3 130 17 145 15 16 15 26 4 85 -24 131 -53 245 -61
236 -4 -4 -22 -73 -38 -153 -30 -144 -31 -145 -11 -166 17 -18 19 -36 19 -162
l0 -141 -57 -16 c-220 -60 -622 -201 -826 -291 -43 -19 -85 -34 -92 -34 -22 0
-22 222 0 240 21 17 19 41 -15 188 -17 72 -30 133 -30 136 0 3 -4 6 -8 6 -5 0
-23 -70 -42 -155 l-33 -155 22 -17 c21 -17 22 -25 19 -152 l-3 -134 -195 -99
c-230 -118 -455 -244 -635 -357 -71 -45 -134 -80 -140 -78 -6 2 -11 51 -13
120 -2 106 -1 117 18 135 l20 19 -35 152 c-19 84 -35 155 -35 159 0 3 -4 2 -9
-3 -5 -6 -23 -77 -41 -159 l-32 -150 21 -16 c21 -15 21 -23 19 -170 l-3 -155
-105 -73 c-58 -40 -185 -131 -283 -203 l-178 -131 3 -427 3 -426 -31 -3 c-26
-3 -33 1 -38 20 -3 13 -6 208 -6 435 0 226 -3 418 -6 426 -3 9 -86 66 -185
128 l-179 113 0 177 c0 98 -3 184 -6 193 -5 14 -32 16 -190 16 l-184 0 0 -117
c0 -65 7 -620 15 -1233 8 -613 26 -2116 40 -3340 14 -1224 28 -2325 31 -2447
l6 -223 348 0 348 0 13 31 c8 22 13 91 13 223 l1 191 31 3 c41 4 44 -6 44
-194 0 -129 2 -153 16 -158 29 -11 4284 -7 4305 4 19 11 19 67 19 4088 0 2348
-4 4083 -9 4091 -7 12 -57 13 -293 10 l-283 -4 -3 135 c-2 125 -1 135 18 150
l20 15 -31 150 c-17 83 -35 154 -39 158 -4 5 -15 -22 -23 -60z m498 -2838 l0
-2150 -215 0 -215 0 -7 1045 c-4 575 -7 1540 -5 2145 l2 1099 25 7 c14 4 113
6 220 6 l195 -2 0 -2150z m-516 2131 c8 -10 10 -578 9 -2147 l-3 -2134 -217
-3 -218 -2 -4 22 c-3 13 -7 965 -10 2116 -5 2272 -8 2121 47 2123 12 0 92 8
177 19 196 23 205 23 219 6z m-535 -78 c6 -29 14 -4178 9 -4195 -4 -10 -57
-13 -223 -13 -200 0 -219 2 -223 18 -3 9 -7 941 -9 2071 l-3 2055 35 9 c77 20
357 76 382 76 21 1 29 -5 32 -21z m-523 -614 c3 -285 8 -1210 10 -2054 l4
-1535 -220 0 -220 0 -6 775 c-3 426 -8 1322 -10 1990 l-4 1215 95 33 c123 43
322 101 335 98 6 -2 12 -189 16 -522z m-537 -36 c3 -211 7 -1096 9 -1968 l2
-1585 -218 -3 c-169 -2 -218 0 -221 10 -7 21 -27 3733 -21 3750 3 8 36 28 73
43 185 79 329 134 348 135 22 0 22 0 28 -382z m-529 161 c8 -11 34 -3685 27
-3707 -3 -10 -53 -12 -221 -10 l-216 3 -7 670 c-22 1961 -25 2810 -12 2831 11
18 392 222 416 224 4 0 10 -5 13 -11z m-518 -1991 c7 -937 11 -1709 8 -1715
-3 -10 -56 -13 -219 -13 -118 0 -217 3 -220 8 -2 4 -9 613 -15 1352 -6 740
-13 1451 -15 1580 l-4 234 28 26 c26 24 277 180 364 227 24 12 45 18 50 13 5
-5 15 -724 23 -1712z m-533 1330 c8 -95 28 -3036 21 -3048 -4 -6 -82 -10 -210
-10 l-203 0 -6 93 c-3 50 -10 688 -16 1416 -11 1277 -11 1325 7 1342 37 37
369 269 385 269 13 0 18 -13 22 -62z m-565 -1610 c14 -35 52 -4270 39 -4286
-6 -7 -21 -12 -32 -10 -17 2 -22 12 -27 58 -4 30 -9 379 -13 775 -3 396 -13
1336 -21 2089 -11 1007 -12 1373 -4 1383 18 20 48 15 58 -9z m589 -1681 c2
-62 0 -78 -13 -83 -8 -3 -15 -17 -15 -29 0 -31 60 -278 70 -288 8 -9 23 52 56
216 17 88 17 88 -5 108 -17 16 -21 31 -21 77 0 31 4 63 8 70 7 9 58 12 223 10
l214 -3 7 -425 c4 -234 7 -533 5 -665 l-2 -240 -214 -3 c-165 -2 -216 1 -223
10 -16 26 -9 91 14 115 l21 23 -33 142 c-18 79 -35 147 -38 152 -9 16 -20 -19
-48 -162 -27 -136 -28 -144 -11 -156 13 -10 17 -27 17 -70 l0 -56 -204 0
c-113 0 -207 4 -210 8 -7 12 -20 1297 -13 1316 6 15 29 16 209 14 l203 -3 3
-78z m1056 67 c3 -9 6 -41 6 -72 0 -43 -5 -61 -21 -78 l-22 -23 33 -143 c18
-79 36 -147 40 -151 8 -9 20 40 56 215 l18 88 -22 20 c-17 16 -22 32 -22 75 0
91 -16 85 230 85 l218 0 7 -182 c3 -101 5 -401 3 -668 l-3 -485 -214 -3 c-165
-2 -216 1 -223 10 -16 26 -9 91 13 114 l21 23 -31 138 c-39 171 -40 173 -50
153 -5 -8 -21 -79 -37 -158 -27 -136 -28 -144 -11 -156 13 -10 17 -27 17 -70
l0 -56 -217 2 -218 3 -7 655 c-4 360 -6 661 -3 668 3 9 56 12 219 12 186 0
215 -2 220 -16z m1054 -58 c3 -58 0 -72 -18 -91 l-20 -22 31 -139 c38 -174 38
-174 48 -154 5 8 21 79 37 158 27 136 28 144 12 156 -15 11 -18 28 -18 90 l0
76 220 0 c219 0 220 0 225 -22 3 -13 4 -313 3 -668 l-3 -645 -220 0 -220 0 -3
49 c-3 38 1 53 18 71 l21 22 -31 139 c-37 170 -39 174 -49 154 -4 -8 -21 -80
-37 -158 -26 -129 -27 -145 -13 -155 19 -14 31 -70 23 -103 l-6 -24 -217 2
-216 3 -7 645 c-4 355 -5 655 -2 668 l4 22 218 -2 217 -3 3 -69z m1052 -5 c0
-61 -3 -80 -15 -85 -21 -8 -19 -36 10 -173 33 -154 35 -160 45 -142 10 18 60
259 60 288 0 12 -7 24 -15 27 -12 5 -15 24 -15 85 l0 79 220 0 220 0 0 -670 0
-670 -217 2 -218 3 -3 49 c-3 38 1 53 17 70 l20 21 -30 140 c-37 172 -38 175
-48 155 -4 -8 -21 -80 -37 -158 -27 -136 -28 -144 -11 -156 13 -10 17 -28 17
-70 l0 -56 -219 0 -219 0 -7 644 c-4 355 -5 656 -1 670 l6 26 220 0 220 0 0
-79z m-3145 -1433 c3 -13 4 -115 3 -228 l-3 -205 -205 0 -205 0 -8 205 c-4
112 -6 215 -2 227 l5 23 205 0 c204 0 205 0 210 -22z m518 -188 c5 -137 5
-212 -2 -228 l-11 -22 -212 2 -213 3 -3 215 c-1 118 0 220 3 227 3 11 50 13
217 11 l213 -3 8 -205z m532 188 c3 -13 4 -115 3 -228 l-3 -205 -209 -3 c-115
-1 -213 1 -217 5 -10 10 -24 392 -15 426 l6 27 215 0 c214 0 215 0 220 -22z
m510 -208 l0 -225 -209 -3 c-115 -1 -213 1 -218 6 -11 11 -23 389 -14 425 l6
27 218 -2 217 -3 0 -225z m539 208 c9 -34 7 -411 -2 -426 -7 -9 -58 -12 -223
-10 l-214 3 -3 215 c-1 118 0 220 2 227 4 10 55 13 220 13 213 0 214 0 220
-22z m511 -208 l0 -225 -214 -3 c-165 -2 -216 1 -223 10 -9 16 -11 432 -1 442
4 3 104 5 222 4 l216 -3 0 -225z m533 -3 l2 -227 -217 2 -218 3 -3 215 c-1
118 0 220 3 227 3 11 50 13 217 11 l213 -3 3 -228z m507 3 l0 -225 -215 0
-215 0 -3 215 c-1 118 0 220 3 227 3 11 50 13 217 11 l213 -3 0 -225z m-3647
-542 l3 -157 -28 -6 c-156 -34 -284 -135 -344 -271 -21 -46 -33 -54 -43 -28
-8 22 -8 609 1 618 4 3 97 5 207 4 l201 -3 3 -157z m516 140 c8 -40 15 -1293
7 -1306 -6 -9 -61 -12 -222 -10 l-214 3 -3 46 c-3 53 3 60 71 77 174 44 306
191 340 381 32 174 -78 380 -248 461 -36 17 -82 34 -103 37 -73 11 -72 8 -72
163 0 76 3 145 6 154 5 14 34 16 220 16 214 0 214 0 218 -22z m534 -137 c3
-163 1 -171 -44 -171 -33 0 -124 -40 -177 -78 -94 -68 -159 -174 -193 -317
l-7 -30 -7 25 c-10 31 -12 714 -3 724 4 3 102 5 217 4 l211 -3 3 -154z m512
140 c7 -14 9 -233 8 -668 l-3 -648 -217 -3 -217 -2 -7 36 c-10 53 7 80 54 86
65 9 169 65 227 123 98 99 155 264 133 389 -32 181 -166 327 -335 367 -82 19
-78 10 -81 170 -1 79 0 149 2 156 4 10 53 13 215 13 198 0 211 -1 221 -19z
m538 -135 c3 -159 -2 -176 -44 -176 -36 0 -137 -43 -189 -81 -87 -62 -162
-190 -179 -302 -4 -26 -11 -49 -15 -51 -13 -8 -22 735 -9 751 8 11 55 13 222
11 l211 -3 3 -149z m506 146 c8 -13 20 -1275 12 -1305 l-6 -27 -218 2 -217 3
0 55 0 54 40 7 c288 50 453 375 326 642 -58 121 -188 222 -317 246 -25 5 -50
15 -55 22 -14 22 -11 283 3 297 14 14 423 18 432 4z m541 -14 c3 -13 4 -84 3
-158 l-3 -135 -30 -8 c-140 -40 -178 -60 -252 -133 -72 -71 -107 -139 -129
-253 -12 -60 -12 -87 -3 -135 30 -158 131 -286 271 -344 42 -18 88 -32 101
-32 35 0 49 -22 45 -72 l-3 -43 -214 -3 c-165 -2 -216 1 -222 10 -10 16 -12
1312 -2 1321 3 4 102 7 219 7 213 0 214 0 219 -22z m503 -356 c1 -227 -1 -371
-7 -368 -5 4 -12 25 -16 49 -19 110 -89 222 -183 290 -55 39 -144 77 -181 77
-47 0 -51 13 -51 170 0 81 3 150 7 154 4 3 102 5 217 4 l211 -3 3 -373z
m-3456 -74 c241 -112 290 -438 90 -597 -73 -57 -127 -75 -232 -75 -82 0 -103
4 -152 26 -120 55 -206 178 -215 309 -12 156 70 285 223 349 73 30 208 25 286
-12z m1050 -1 c126 -62 210 -190 211 -323 0 -94 -25 -161 -86 -229 -149 -168
-422 -163 -560 10 -56 70 -81 142 -81 230 1 150 77 261 223 322 47 20 70 23
146 20 74 -2 100 -7 147 -30z m1018 13 c144 -57 240 -193 240 -338 0 -200
-179 -363 -385 -350 -134 9 -261 96 -316 217 -30 65 -37 183 -14 250 19 58 77
137 126 172 97 69 245 90 349 49z m1072 -12 c74 -35 152 -113 185 -186 37 -81
37 -193 0 -274 -33 -74 -111 -152 -185 -186 -49 -22 -71 -26 -152 -26 -85 0
-101 3 -155 29 -165 80 -250 263 -195 425 36 108 109 185 215 229 74 31 209
26 287 -11z m-1647 -395 c16 -108 100 -237 200 -305 38 -26 128 -61 188 -73
27 -5 28 -8 25 -58 l-3 -52 -215 0 -215 0 -3 268 c-1 165 1 267 7 267 5 0 13
-21 16 -47z m1963 -220 l-3 -268 -215 0 -215 0 -3 43 c-4 53 7 68 57 75 67 9
169 65 231 127 65 65 106 143 123 231 6 32 14 59 19 59 5 0 7 -120 6 -267z
m-3003 193 c23 -88 63 -156 129 -221 65 -64 124 -98 203 -116 75 -18 78 -21
78 -75 l0 -49 -215 0 -215 0 -8 190 c-6 171 -2 343 9 332 2 -2 11 -29 19 -61z
m-1011 -95 c64 -133 187 -224 349 -256 27 -5 28 -8 25 -58 l-3 -52 -205 0
-205 0 -3 208 c-1 135 1 207 8 207 5 0 21 -22 34 -49z"/>
<path d="M7642 9249 c-20 -61 -62 -237 -62 -257 0 -11 7 -25 15 -32 20 -17 22
-270 3 -271 -7 0 -112 -1 -233 -2 l-220 -2 -8 -3829 c-5 -2105 -5 -3832 0
-3837 8 -8 3495 -479 3548 -479 54 0 56 6 62 156 4 88 11 149 20 166 12 25 19
28 67 28 34 0 56 -5 59 -12 3 -7 2 -94 -1 -193 -4 -156 -3 -185 12 -213 l17
-32 348 0 349 0 6 382 c4 211 22 1701 41 3313 19 1612 38 3095 41 3298 l7 367
-189 -2 -189 -3 -5 -190 -5 -190 -92 -60 c-51 -33 -133 -86 -183 -117 l-90
-57 0 -309 c0 -170 -3 -370 -7 -445 l-6 -136 -27 -6 c-15 -3 -40 -3 -54 1
l-27 6 7 257 c6 246 5 258 -15 304 -18 41 -21 69 -21 175 l-1 127 -142 122
c-78 66 -190 160 -249 207 -58 47 -108 91 -111 98 -3 7 -2 74 0 148 5 110 9
139 23 155 17 19 17 25 -16 160 -43 175 -43 175 -54 155 -5 -9 -25 -81 -45
-160 l-36 -145 20 -14 c19 -12 21 -23 21 -113 0 -77 -3 -100 -14 -104 -9 -3
-48 19 -91 51 -127 94 -391 266 -552 359 l-153 89 0 125 c0 112 2 128 20 147
l21 22 -37 151 c-19 84 -39 152 -44 152 -4 0 -25 -69 -46 -153 l-37 -154 22
-22 c22 -22 23 -28 16 -115 -4 -50 -8 -93 -10 -95 -2 -2 -89 35 -192 82 -169
76 -413 171 -533 208 l-45 14 -3 135 c-2 126 -1 135 18 150 l20 15 -36 153
c-20 83 -40 152 -44 152 -4 0 -25 -68 -45 -151 l-38 -150 22 -20 c19 -18 21
-30 21 -122 0 -56 -4 -109 -9 -117 -8 -12 -29 -9 -143 18 -158 37 -330 66
-488 82 -65 6 -118 16 -123 23 -4 7 -6 67 -5 134 3 107 5 124 22 136 18 14 18
17 -14 153 -39 168 -44 178 -58 133z m-43 -698 c12 -8 13 -302 7 -2028 -4
-1110 -11 -2021 -15 -2025 -8 -9 -268 9 -284 19 -10 6 0 4019 10 4036 6 10
265 9 282 -2z m314 -26 c49 -7 91 -15 94 -18 6 -7 3 -1889 -6 -3132 l-6 -900
-144 3 c-88 1 -150 7 -158 13 -11 10 -12 342 -7 2013 3 1100 7 2012 10 2024 5
23 7 24 67 17 34 -4 102 -13 150 -20z m379 -76 c67 -16 130 -35 140 -40 17 -9
18 -50 17 -977 -1 -532 -5 -1421 -8 -1977 l-6 -1010 -140 2 c-77 2 -151 5
-164 8 l-23 6 7 2002 c4 1101 9 2005 12 2010 7 13 41 8 165 -24z m430 -134
c68 -25 129 -52 137 -60 11 -11 12 -304 2 -1917 -7 -1046 -14 -1909 -17 -1917
-3 -10 -30 -12 -142 -6 -75 4 -148 12 -161 16 l-23 9 6 1393 c3 765 9 1650 12
1966 l6 573 29 -6 c15 -3 83 -26 151 -51z m443 -192 c72 -35 136 -71 144 -78
12 -12 12 -269 2 -1832 -7 -1065 -16 -1822 -21 -1827 -12 -12 -308 8 -322 22
-7 7 -7 546 1 1893 7 1036 15 1887 17 1891 8 13 36 2 179 -69z m386 -208 c61
-36 132 -80 156 -97 l45 -30 -7 -932 c-4 -512 -10 -1283 -14 -1713 -3 -430 -9
-785 -13 -789 -13 -12 -320 14 -330 28 -5 7 -7 155 -4 338 3 179 8 843 11
1475 6 1433 12 1785 31 1785 7 0 63 -29 125 -65z m476 -312 c75 -54 149 -110
164 -124 l27 -25 -4 -235 c-2 -129 -9 -830 -15 -1559 -6 -766 -14 -1329 -19
-1334 -10 -10 -327 8 -337 18 -6 6 16 3324 22 3344 3 6 9 12 15 12 6 0 72 -44
147 -97z m471 -367 l132 -111 0 -200 c1 -549 -23 -2621 -30 -2629 -9 -9 -308
9 -318 19 -7 7 18 3033 25 3052 7 19 29 4 191 -131z m440 -1498 c7 -9 6 -421
-4 -1303 -30 -2878 -32 -2988 -46 -2996 -21 -14 -75 -10 -88 5 -9 11 -10 75
-4 258 7 240 6 244 -16 283 l-22 40 11 1050 c7 577 16 1399 20 1825 9 789 10
817 46 842 17 12 92 9 103 -4z m-3355 -1389 c14 -8 17 -23 17 -78 0 -58 -3
-71 -21 -82 l-20 -14 37 -148 c20 -82 40 -145 45 -140 4 4 23 71 43 147 34
137 34 140 15 154 -15 11 -19 25 -19 76 0 39 5 67 13 73 8 6 64 5 157 -2 80
-7 147 -13 149 -14 7 -2 -4 -1260 -11 -1267 -7 -6 -256 12 -290 22 -25 7 -25
99 -1 126 15 17 15 26 -12 141 -34 151 -43 178 -54 157 -5 -8 -23 -75 -41
-148 l-33 -133 22 -20 c13 -12 21 -32 21 -52 0 -61 -4 -62 -149 -50 -72 6
-135 14 -141 18 -12 7 -15 1237 -2 1249 9 10 252 -3 275 -15z m703 -44 c67 -4
127 -11 135 -16 10 -6 14 -29 14 -78 0 -58 -3 -73 -20 -85 -19 -14 -19 -15 9
-133 40 -161 47 -186 52 -180 7 7 74 267 74 288 0 9 -7 22 -15 29 -19 16 -21
146 -2 152 21 8 291 -14 305 -25 10 -8 11 -133 6 -641 -4 -347 -10 -635 -14
-639 -9 -10 -264 10 -297 24 -19 7 -23 16 -23 56 0 33 6 53 20 68 l21 22 -37
147 c-20 81 -40 144 -45 139 -4 -4 -23 -71 -43 -148 -35 -139 -35 -140 -15
-161 21 -22 27 -98 8 -109 -16 -10 -292 16 -308 29 -12 9 -13 105 -7 636 7
645 7 646 46 635 8 -2 69 -7 136 -10z m992 -75 c20 -9 22 -16 22 -79 0 -61 -3
-72 -22 -85 l-22 -16 34 -140 c33 -134 44 -170 53 -160 2 3 20 70 41 149 l37
144 -21 22 c-15 16 -20 35 -20 82 0 37 5 64 13 70 9 7 304 -7 325 -16 6 -3 -4
-1300 -10 -1306 -9 -10 -297 15 -320 27 -27 13 -24 92 3 119 l22 22 -33 141
c-18 78 -36 148 -41 156 -10 19 -8 24 -53 -154 l-36 -140 20 -21 c25 -26 28
-102 5 -111 -16 -6 -275 13 -309 23 -19 5 -19 21 -13 646 4 382 10 643 16 646
14 9 282 -8 309 -19z m872 -59 l35 -7 3 -71 c3 -63 0 -74 -19 -92 l-23 -21 35
-147 c19 -81 39 -148 45 -150 5 -2 27 65 48 147 l39 151 -21 20 c-18 16 -22
31 -22 77 0 89 -5 87 169 75 83 -5 154 -12 157 -15 7 -8 6 -907 -3 -1140 l-6
-188 -42 0 c-76 0 -260 22 -272 32 -7 6 -13 32 -13 59 0 38 5 51 22 63 l22 15
-33 143 c-19 79 -37 150 -42 158 -10 20 -16 2 -60 -168 l-33 -132 22 -16 c17
-12 22 -25 22 -59 0 -29 -5 -47 -15 -52 -17 -10 -315 15 -328 27 -10 9 -10
1251 0 1289 l6 23 136 -7 c75 -3 152 -10 171 -14z m-2696 -1215 c85 -9 131
-18 137 -27 15 -23 11 -382 -4 -403 -12 -16 -21 -17 -117 -6 -58 6 -120 13
-137 16 l-33 5 0 208 c0 114 3 211 7 214 8 8 -7 9 147 -7z m382 -36 c174 -17
154 14 154 -230 0 -134 -4 -211 -10 -215 -10 -6 -171 7 -262 21 l-38 6 0 214
0 214 23 0 c13 0 73 -5 133 -10z m449 -43 c66 -7 126 -16 133 -20 9 -6 12 -60
12 -211 0 -151 -3 -206 -12 -213 -12 -10 -235 7 -295 22 -23 5 -23 6 -23 214
0 114 3 211 7 214 8 9 34 8 178 -6z m388 -38 c184 -16 167 8 167 -231 0 -112
-4 -209 -9 -216 -6 -11 -35 -10 -157 3 -81 9 -152 19 -156 21 -10 6 -11 418
-1 427 8 9 13 9 156 -4z m453 -45 c82 -8 153 -19 158 -24 14 -14 3 -420 -12
-429 -11 -6 -243 12 -299 24 -23 5 -23 6 -23 219 0 117 3 216 7 219 8 9 -3 9
169 -9z m454 -45 c63 -6 118 -13 123 -16 4 -2 7 -101 7 -219 0 -174 -3 -216
-14 -220 -15 -6 -304 24 -318 32 -4 3 -8 99 -8 213 0 230 2 235 60 227 19 -3
87 -10 150 -17z m435 -39 c61 -6 120 -13 133 -16 l22 -4 0 -220 c0 -123 -4
-221 -9 -225 -9 -5 -271 20 -318 30 -23 5 -23 6 -23 219 0 117 3 216 7 219 9
10 61 9 188 -3z m414 -41 c178 -16 161 10 161 -244 0 -185 -2 -216 -15 -222
-14 -5 -179 9 -277 23 l-38 6 0 217 c0 120 3 221 7 224 9 9 27 9 162 -4z
m-2939 -292 l95 -12 3 -152 3 -151 -78 -23 c-70 -21 -84 -29 -140 -86 -35 -35
-65 -63 -68 -63 -3 0 -5 113 -5 250 l0 250 48 -1 c26 0 90 -6 142 -12z m352
-38 c164 -17 148 14 148 -278 0 -147 -4 -252 -10 -256 -5 -3 -25 20 -46 52
-20 32 -46 69 -58 82 -29 33 -135 101 -157 101 -41 0 -49 25 -49 155 0 68 3
130 6 139 7 19 28 20 166 5z m453 -50 c61 -6 115 -16 121 -22 8 -8 9 -57 5
-156 l-6 -143 -75 -24 c-84 -26 -141 -68 -191 -140 -16 -24 -34 -44 -39 -44
-12 0 -14 533 -3 544 4 4 23 5 43 2 19 -3 85 -11 145 -17z m414 -43 c71 -9
117 -19 123 -27 6 -8 7 -87 4 -193 -3 -99 -6 -214 -6 -258 0 -43 -4 -78 -8
-78 -4 0 -24 28 -44 63 -56 95 -149 174 -229 195 l-34 8 -3 152 -3 152 43 0
c24 -1 94 -7 157 -14z m421 -46 c63 -6 123 -14 133 -16 15 -5 17 -21 17 -159
l0 -153 -72 -22 c-96 -28 -159 -72 -209 -143 -27 -39 -45 -55 -51 -49 -12 12
-7 531 6 550 5 8 18 11 34 8 15 -3 79 -10 142 -16z m423 -46 c82 -9 145 -20
149 -27 14 -22 4 -547 -11 -547 -3 0 -17 21 -31 48 -50 96 -168 199 -255 223
l-35 10 0 154 c0 149 1 155 20 155 12 0 85 -7 163 -16z m462 -49 c72 -9 136
-17 143 -20 10 -3 12 -40 10 -156 -3 -171 4 -157 -97 -185 -83 -23 -157 -78
-201 -147 -19 -31 -38 -56 -41 -57 -14 -1 -16 47 -11 308 l5 272 31 0 c17 0
90 -7 161 -15z m515 -55 c53 -1 53 1 51 -266 -1 -137 -6 -253 -10 -257 -5 -5
-23 12 -41 38 -59 86 -142 150 -242 189 l-38 15 0 140 c0 105 3 143 14 153 11
12 32 12 127 2 63 -7 125 -13 139 -14z m-2827 -110 c27 -13 66 -44 89 -68 152
-165 141 -444 -22 -553 -144 -97 -363 61 -398 286 -22 139 27 269 127 336 40
27 53 30 101 27 31 -2 76 -14 103 -28z m835 -98 c231 -113 274 -487 71 -628
-105 -72 -272 -8 -363 139 -77 124 -74 310 6 422 72 102 168 125 286 67z m858
-97 c181 -88 264 -338 174 -522 -71 -144 -193 -187 -327 -117 -61 33 -98 67
-138 129 -100 156 -91 354 22 470 77 79 163 92 269 40z m889 -104 c131 -63
218 -208 217 -364 -1 -116 -51 -221 -135 -282 -149 -107 -393 42 -447 274 -18
75 -7 177 24 243 32 65 49 86 105 126 39 28 52 32 110 32 52 0 79 -6 126 -29z
m-2941 -255 c42 -72 121 -135 219 -174 24 -10 27 -17 27 -57 0 -27 -5 -47 -12
-50 -25 -9 -269 31 -279 46 -5 8 -9 67 -9 131 0 162 9 180 54 104z m644 -161
c1 -88 -2 -163 -7 -168 -10 -10 -251 18 -289 34 -20 8 -23 15 -20 56 l3 46 77
26 c84 29 145 72 185 132 14 22 31 38 37 36 7 -2 12 -58 14 -162z m162 84 c43
-75 122 -151 187 -180 26 -12 55 -25 63 -29 20 -9 26 -95 8 -102 -20 -8 -289
30 -304 43 -10 8 -14 38 -14 103 0 106 10 226 19 226 3 0 22 -28 41 -61z m680
-188 c0 -107 -4 -172 -10 -176 -13 -8 -265 22 -298 36 -20 8 -23 15 -20 57 l3
47 76 25 c95 31 148 67 191 131 54 79 58 71 58 -120z m161 92 c18 -32 53 -79
78 -106 44 -48 135 -107 164 -107 40 0 62 -66 35 -103 -12 -16 -22 -16 -161 3
-82 11 -153 22 -158 26 -12 7 -12 344 0 344 5 0 24 -26 42 -57z m709 -198 c0
-154 -2 -176 -16 -182 -16 -6 -284 24 -312 35 -9 3 -12 21 -10 56 l3 51 82 26
c93 30 145 67 198 139 20 28 41 50 46 50 5 0 9 -76 9 -175z m166 88 c59 -106
162 -195 250 -217 36 -9 44 -21 44 -69 0 -25 -5 -40 -16 -44 -15 -6 -278 22
-316 33 -16 5 -18 22 -18 178 0 149 3 186 16 186 1 0 19 -30 40 -67z m707 -75
c7 -19 -4 -302 -12 -311 -11 -11 -303 31 -313 45 -12 20 -9 85 5 95 6 5 46 19
87 32 83 26 140 62 183 116 30 37 42 43 50 23z"/>
</g>
</svg>
